<?xml version="1.0" encoding="utf-8"?>
<!-- Generator: Adobe Illustrator 23.0.2, SVG Export Plug-In . SVG Version: 6.00 Build 0)  -->
<svg version="1.1" id="Layer_1" xmlns="http://www.w3.org/2000/svg" xmlns:xlink="http://www.w3.org/1999/xlink" x="0px" y="0px"
	 viewBox="0 0 16 16" style="enable-background:new 0 0 16 16;" xml:space="preserve">
<style type="text/css">
	.st0{fill:#FFFFFF;}
</style>
<g id="icon_dashboard" transform="translate(-79 -127)">
	<path id="Union_8" class="st0" d="M92,143c-0.5,0-1-0.4-1-0.9c0,0,0-0.1,0-0.1v-9c0-0.5,0.4-1,0.9-1c0,0,0.1,0,0.1,0h2
		c0.5,0,1,0.4,1,0.9c0,0,0,0.1,0,0.1v9c0,0.5-0.4,1-0.9,1c0,0-0.1,0-0.1,0H92z M86,143c-0.5,0-1-0.4-1-0.9c0,0,0-0.1,0-0.1v-14
		c0-0.5,0.4-1,0.9-1c0,0,0.1,0,0.1,0h2c0.5,0,1,0.4,1,0.9c0,0,0,0.1,0,0.1v14c0,0.5-0.4,1-0.9,1c0,0-0.1,0-0.1,0H86z M80,143
		c-0.5,0-1-0.4-1-0.9c0,0,0-0.1,0-0.1v-4c0-0.5,0.4-1,0.9-1c0,0,0.1,0,0.1,0h2c0.5,0,1,0.4,1,0.9c0,0,0,0.1,0,0.1v4
		c0,0.5-0.4,1-0.9,1c0,0-0.1,0-0.1,0H80z"/>
</g>
</svg>
