<?xml version="1.0" encoding="utf-8"?>
<!-- Generator: Adobe Illustrator 23.0.2, SVG Export Plug-In . SVG Version: 6.00 Build 0)  -->
<svg version="1.1" id="Layer_1" xmlns="http://www.w3.org/2000/svg" xmlns:xlink="http://www.w3.org/1999/xlink" x="0px" y="0px"
	 viewBox="0 0 14 16" style="enable-background:new 0 0 14 16;" xml:space="preserve">
<style type="text/css">
	.st0{fill-rule:evenodd;clip-rule:evenodd;fill:#FFFFFF;}
</style>
<path id="Path_49" class="st0" d="M7,8c1.1,0,2,0.9,2,2s-0.9,2-2,2s-2-0.9-2-2C5,8.9,5.9,8,7,8z M7,2C5.9,2,5,2.9,5,4h4
	C9,2.9,8.1,2,7,2z M12,16H2c-1.1,0-2-0.9-2-2V6c0-1.1,0.9-2,2-2h1c0-2.2,1.8-4,4-4s4,1.8,4,4h1c1.1,0,2,0.9,2,2v8
	C14,15.1,13.1,16,12,16z"/>
</svg>
