<?xml version="1.0" encoding="utf-8"?>
<!-- Generator: Adobe Illustrator 23.0.2, SVG Export Plug-In . SVG Version: 6.00 Build 0)  -->
<svg version="1.1" id="Layer_1" xmlns="http://www.w3.org/2000/svg" xmlns:xlink="http://www.w3.org/1999/xlink" x="0px" y="0px"
	 viewBox="0 0 13.9 16.1" style="enable-background:new 0 0 13.9 16.1;" xml:space="preserve">
<style type="text/css">
	.st0{fill-rule:evenodd;clip-rule:evenodd;fill:#FFFFFF;}
</style>
<g id="Forma_1_3_" transform="translate(339 -312.931)">
	<g id="Group_310" transform="translate(-339 312.931)">
		<path id="Path_656" class="st0" d="M13.9,14.8c-0.1-1.7-1.2-3.3-2.7-4.1c-0.6-0.3-1.7-0.9-2.5-1.2c0.7-0.9,1.1-1.9,1.3-2.9
			c0.1-0.8,0.2-1.6,0.1-2.4C9.9,1.5,7.2,1.5,7,1.5h0c-0.2,0-2.9,0-3.1,2.6c-0.1,0.8,0,1.6,0.1,2.4c0,0.1,0,0.3,0.1,0.5
			c0.5,0.6,1.1,1,1.9,1.1C6,8.1,6.1,8.1,6.2,8.1h1.1c0.2,0,0.4,0.2,0.4,0.4c0,0.2-0.2,0.4-0.4,0.4c0,0,0,0,0,0H6.2
			c-0.2,0-0.3-0.1-0.4-0.3C5.3,8.6,4.8,8.3,4.3,8c0.2,0.5,0.5,1,0.9,1.5c-0.7,0.4-1.8,0.9-2.5,1.2C1.2,11.5,0.1,13,0,14.8
			c0,0,0,0.5,0.9,0.7c2,0.4,4,0.6,6.1,0.6c2,0,4.1-0.2,6.1-0.6C13.9,15.3,13.9,14.8,13.9,14.8z M3,7.5h0.3V4.2c0,0,0,0,0,0V3.7
			C3.2,3,3.5,2.2,4,1.7c0.8-0.7,1.9-1,2.9-1C8,0.6,9,1,9.9,1.7c0.5,0.5,0.8,1.3,0.8,2.1v3.7h0.3c0.7,0,1.2-0.5,1.2-1.2V5.1
			c0-0.5-0.3-1-0.8-1.2V3.7c0-0.9-0.3-1.9-1-2.5C9.4,0.4,8.2,0,6.9,0C5.7,0,4.5,0.4,3.6,1.2c-0.7,0.7-1,1.6-1,2.5v0.2
			C2.1,4.1,1.7,4.5,1.7,5.1v1.2C1.7,6.9,2.3,7.5,3,7.5C3,7.5,3,7.5,3,7.5z"/>
	</g>
</g>
</svg>
