<?xml version="1.0" encoding="utf-8"?>
<!-- Generator: Adobe Illustrator 23.0.2, SVG Export Plug-In . SVG Version: 6.00 Build 0)  -->
<svg version="1.1" id="Layer_1" xmlns="http://www.w3.org/2000/svg" xmlns:xlink="http://www.w3.org/1999/xlink" x="0px" y="0px"
	 viewBox="0 0 16 16" style="enable-background:new 0 0 16 16;" xml:space="preserve">
<style type="text/css">
	.st0{fill:#FFFFFF;}
</style>
<g id="icon_help-center" transform="translate(-255 -91)">
	<path id="Union_11" class="st0" d="M265,104h-5l1.8-2h6.2c0.6,0,1-0.4,1-1v-6h1c0.6,0,1,0.4,1,1v7c0,0.6-0.4,1-1,1h-2v3L265,104z
		 M258,100h-2c-0.6,0-1-0.4-1-1v-7c0-0.6,0.4-1,1-1h10c0.6,0,1,0.4,1,1v7c0,0.6-0.4,1-1,1h-5l-3,3V100z"/>
</g>
</svg>
