<?xml version="1.0" encoding="utf-8"?>
<!-- Generator: Adobe Illustrator 23.0.2, SVG Export Plug-In . SVG Version: 6.00 Build 0)  -->
<svg version="1.1" id="Layer_1" xmlns="http://www.w3.org/2000/svg" xmlns:xlink="http://www.w3.org/1999/xlink" x="0px" y="0px"
	 viewBox="0 0 16 16" style="enable-background:new 0 0 16 16;" xml:space="preserve">
<style type="text/css">
	.st0{fill:#FFFFFF;}
</style>
<g id="icon_setting" transform="translate(-363 -91)">
	<path id="Path_108" class="st0" d="M376.3,96.2l1.1-2.1l-1.4-1.4l-2.1,1.1c-0.3-0.2-0.7-0.3-1.1-0.4L372,91h-2l-0.8,2.3
		c-0.3,0.1-0.7,0.2-1,0.4l-2.1-1.1l-1.5,1.5l1.1,2.1c-0.2,0.3-0.3,0.7-0.4,1L363,98v2l2.3,0.8c0.1,0.4,0.3,0.7,0.4,1.1l-1.1,2.1
		l1.4,1.4l2.1-1.1c0.3,0.2,0.7,0.3,1.1,0.4l0.8,2.3h2l0.8-2.3c0.4-0.1,0.7-0.3,1.1-0.4l2.1,1.1l1.4-1.4l-1.1-2.1
		c0.2-0.3,0.3-0.7,0.4-1.1l2.3-0.8v-2l-2.3-0.8C376.6,96.9,376.5,96.5,376.3,96.2z M371,102c-1.6,0-3-1.3-3-2.9c0,0,0-0.1,0-0.1
		c0-1.6,1.3-3,2.9-3c0,0,0.1,0,0.1,0c1.6,0,3,1.3,3,2.9c0,0,0,0.1,0,0.1c0,1.6-1.3,3-2.9,3C371.1,102,371,102,371,102z"/>
</g>
</svg>
