<?xml version="1.0" encoding="utf-8"?>
<!-- Generator: Adobe Illustrator 23.0.2, SVG Export Plug-In . SVG Version: 6.00 Build 0)  -->
<svg version="1.1" id="Layer_1" xmlns="http://www.w3.org/2000/svg" xmlns:xlink="http://www.w3.org/1999/xlink" x="0px" y="0px"
	 viewBox="0 0 14 16" style="enable-background:new 0 0 14 16;" xml:space="preserve">
<style type="text/css">
	.st0{fill:#FFFFFF;}
</style>
<g id="icon_chat-room" transform="translate(-44 -195)">
	<path id="icon_money-bag" class="st0" d="M47.2,211c-1.1,0-2.2-0.6-2.8-1.5c-0.5-0.9-0.5-2.1,0-3l3.5-6c0.2-0.3,0.6-0.5,1-0.5h4.3
		c0.4,0,0.7,0.2,1,0.5l3.5,6c0.5,0.9,0.5,2.1,0,3c-0.6,0.9-1.7,1.5-2.8,1.5H47.2z M48.9,198c-0.3,0-0.5-0.1-0.7-0.3l-1.1-1
		c-0.4-0.4-0.4-1-0.1-1.4c0.2-0.2,0.5-0.4,0.8-0.3h6.4c0.5,0,1,0.4,1,0.9c0,0.3-0.1,0.6-0.3,0.8l-1.1,1c-0.2,0.2-0.5,0.3-0.7,0.3
		H48.9z"/>
</g>
</svg>
