<?xml version="1.0" encoding="utf-8"?>
<!-- Generator: Adobe Illustrator 23.0.1, SVG Export Plug-In . SVG Version: 6.00 Build 0)  -->
<svg version="1.1" id="Layer_1" xmlns="http://www.w3.org/2000/svg" xmlns:xlink="http://www.w3.org/1999/xlink" x="0px" y="0px"
	 viewBox="0 0 416 416" style="enable-background:new 0 0 416 416;" xml:space="preserve">
<style type="text/css">
	.st0{fill:#CD2B42;}
</style>
<g id="Symbol_46_1" transform="translate(-1384 -844)">
	<path id="Path_4" class="st0" d="M1446.5,906.5c37-41.1,90.2-63.9,145.5-62.4c55.3-1.5,108.5,21.3,145.5,62.4
		c41.1,37,63.9,90.2,62.4,145.5c1.5,55.3-21.3,108.5-62.4,145.5c-37,41.1-90.2,63.9-145.5,62.4c-55.3,1.5-108.5-21.3-145.5-62.4
		c-39.2-38.4-61.6-90.7-62.4-145.5C1382.5,996.7,1405.3,943.5,1446.5,906.5z M1619.7,1218.3c20.6-3.7,39.1-14.8,52-31.2
		c14.2-21.8,22.5-46.8,24.2-72.8c0.1-15.6-6.1-30.7-17.3-41.6c-11.4-13-27.8-20.6-45-20.8h-34.6c-10.7-0.6-21.2-3-31.2-6.9
		c-6.9-6.2-10.7-15-10.4-24.2c0.1-5.4,2.7-10.5,6.9-13.9c3.8-3.7,8.6-6.1,13.9-6.9c7,0.7,13.4,4.5,17.3,10.4
		c6.9,3.5,10.4,6.9,13.9,6.9c4.9,0.5,9.8-0.7,13.9-3.5c2.8-4.1,4-9,3.5-13.9c-1.4-13.3-7.6-25.6-17.3-34.6
		c11-20.2,16.9-42.8,17.3-65.8c-0.3-3.7-3.2-6.7-6.9-6.9c-8.9-3.5-18.2-5.9-27.7-6.9c-32,0.7-63.2,10.3-90.1,27.7
		c-20.4,17.1-31.9,42.7-31.2,69.3c-0.4,24.9,9.7,48.7,27.7,65.8c17.5,17.5,41.1,27.4,65.8,27.7l0,0v13.9c-0.7,13,4.4,25.7,13.9,34.7
		c7.3,10.7,18.5,18.1,31.2,20.8v62.4c0,3.5,0,3.5,3.5,6.9S1616.2,1218.3,1619.7,1218.3z"/>
</g>
</svg>
