<svg xmlns="http://www.w3.org/2000/svg" width="46.557" height="46.556" viewBox="0 0 46.557 46.556">
  <g id="Icon" transform="translate(0 0)">
    <g id="Group_507" data-name="Group 507">
      <g id="Icon.BG" fill="#fff" stroke="#56d9fe" stroke-width="1">
        <circle cx="23.278" cy="23.278" r="23.278" stroke="none"/>
        <circle cx="23.278" cy="23.278" r="22.778" fill="none"/>
      </g>
      <path id="money-bag-icon" d="M3.88,19.6A4.115,4.115,0,0,1,.489,17.765a3.7,3.7,0,0,1,0-3.675l4.3-7.351a1.391,1.391,0,0,1,1.174-.613h5.217a1.391,1.391,0,0,1,1.174.613l4.3,7.351a3.692,3.692,0,0,1,0,3.675A4.115,4.115,0,0,1,13.271,19.6ZM5.967,3.675a1.222,1.222,0,0,1-.913-.367L3.75,2.083A1.194,1.194,0,0,1,4.663,0h7.825A1.217,1.217,0,0,1,13.4,2.083L12.1,3.308a1.22,1.22,0,0,1-.913.367Z" transform="translate(14.702 13.477)" fill="#56d9fe"/>
    </g>
  </g>
</svg>
