<svg xmlns="http://www.w3.org/2000/svg" width="46.557" height="46.556" viewBox="0 0 46.557 46.556">
  <g id="Icon" transform="translate(0)">
    <circle id="Icon.BG" cx="23.278" cy="23.278" r="23.278" fill="#daf7e8"/>
    <path id="Process" d="M15.438,14.7a8.542,8.542,0,0,1-6,2.45,8.233,8.233,0,0,1-6-2.45A8.064,8.064,0,0,1,1.1,10.048l2.45-.369a6.627,6.627,0,0,0,1.713,3.309,6.141,6.141,0,0,0,8.578,0l-2.573-2.573,7.84-.859-.98,7.842ZM.857,0l2.7,2.7a8.653,8.653,0,0,1,12.129,0,8.075,8.075,0,0,1,2.328,4.656l-2.45.369a6.62,6.62,0,0,0-1.716-3.309,6.141,6.141,0,0,0-8.578,0L7.842,6.983,0,7.842Z" transform="translate(13.477 14.702)" fill="#4ad991"/>
  </g>
</svg>
