<svg xmlns="http://www.w3.org/2000/svg" width="46.557" height="46.556" viewBox="0 0 46.557 46.556">
  <g id="Icon" transform="translate(0)">
    <circle id="Icon.BG" cx="23.278" cy="23.278" r="23.278" fill="#f0f0f7"/>
    <path id="time-countdown" d="M0,11.025A8.523,8.523,0,0,1,8.576,2.449a8.387,8.387,0,0,1,5.148,1.717l1.1-1.1-.982-.98a1.184,1.184,0,0,1,0-1.714,1.186,1.186,0,0,1,1.716,0l3.676,3.676a1.185,1.185,0,0,1,0,1.714,1.187,1.187,0,0,1-1.717,0l-.979-.98-1.1,1.1a8.389,8.389,0,0,1,1.715,5.145A8.524,8.524,0,0,1,8.576,19.6,8.523,8.523,0,0,1,0,11.025Zm2.451,0a6.067,6.067,0,0,0,6.125,6.127A6.068,6.068,0,0,0,14.7,11.025,6.066,6.066,0,0,0,8.576,4.9,6.065,6.065,0,0,0,2.451,11.025Zm4.9,1.225V7.35H9.8V9.8h2.449V12.25Z" transform="translate(13.477 13.477)" fill="#b4b4c6"/>
  </g>
</svg>
